<svg xmlns="http://www.w3.org/2000/svg" width="451" height="451" style="shape-rendering:geometricPrecision;text-rendering:geometricPrecision;image-rendering:optimizeQuality;fill-rule:evenodd;clip-rule:evenodd"><path fill="#7b9690" d="M203.5-.5h43q127.506 16.865 184.5 132 15.183 35.245 19.5 73v41q-10.57 94.395-83 155.5-53.679 41.337-121 49.5h-43Q71.178 432.916 16 311.5q-12.561-31.607-16.5-65v-42Q16.6 71.53 138.5 16q31.545-12.76 65-16.5" style="opacity:.998"/><path fill="#f1efe8" d="M255.5 121.5q25.857-.875 35.5 23 4.468 26.667-19.5 38.5-29.04 8.007-40.5-19.5-6.634-32.255 24.5-42" style="opacity:1"/><path fill="#7b9590" d="M255.5 175.5q-22.351-7.692-16.5-31 3.525-7.272 10.5-11 10.591-1.441 21 .5 3.075 2.453 3 6.5h5a201 201 0 0 1 3 16q-1.255 3.507-2.5 7-4.461 3-7.5 7.5a139 139 0 0 1-16 4.5" style="opacity:1"/><path fill="#85958f" d="M255.5 175.5a139 139 0 0 0 16-4.5q3.039-4.5 7.5-7.5 1.245-3.493 2.5-7a201 201 0 0 0-3-16h-5q.075-4.047-3-6.5-10.409-1.941-21-.5 16.25-7.714 29.5 5 10.683 18.486-4.5 33.5a74 74 0 0 0-9 4q-5.29 1.212-10-.5" style="opacity:1"/><path fill="#f1efe8" d="M135.5 207.5q58.878-.623 110 28.5 24.011 11.131 50 6a162 162 0 0 0 15-8 92.4 92.4 0 0 0 10-13q5.101-1.702 6 3.5-3.744 12.512-15 19.5-27.993 14.716-58 4a1339 1339 0 0 1-46-20q-37.305-13.976-77-11-48.561 6.764-76 47-7.743 2.135-6.5-5.5 32.385-45.065 87.5-51" style="opacity:1"/><path fill="#f1efe9" d="M373.5 259.5q8.602-.744 5.5 7-35.192 57.272-102.5 48.5a272 272 0 0 1-47-14q-25.533-14.343-54-21-20.62-2.487-39 7-6.085 5.52-13 9.5-5.47-1.479-3.5-7 23.264-22.22 55.5-17.5a89.7 89.7 0 0 1 27 7 514 514 0 0 0 58 24q60.107 17.899 102.5-27.5a207 207 0 0 0 10.5-16" style="opacity:1"/></svg>